<?xml version="1.0" encoding="UTF-8" standalone="no"?>
<!-- Created with Inkscape (http://www.inkscape.org/) -->

<svg
   xmlns:osb="http://www.openswatchbook.org/uri/2009/osb"
   xmlns:dc="http://purl.org/dc/elements/1.1/"
   xmlns:cc="http://creativecommons.org/ns#"
   xmlns:rdf="http://www.w3.org/1999/02/22-rdf-syntax-ns#"
   xmlns:svg="http://www.w3.org/2000/svg"
   xmlns="http://www.w3.org/2000/svg"
   xmlns:sodipodi="http://sodipodi.sourceforge.net/DTD/sodipodi-0.dtd"
   xmlns:inkscape="http://www.inkscape.org/namespaces/inkscape"
   width="300"
   height="300"
   viewBox="0 0 79.374998 79.375002"
   version="1.1"
   id="svg958"
   inkscape:version="0.92.3 (2405546, 2018-03-11)"
   sodipodi:docname="sad_2.svg">
  <defs
     id="defs952">
    <linearGradient
       id="linearGradient1608"
       osb:paint="solid">
      <stop
         style="stop-color:#000000;stop-opacity:1;"
         offset="0"
         id="stop1606" />
    </linearGradient>
  </defs>
  <sodipodi:namedview
     id="base"
     pagecolor="#ffffff"
     bordercolor="#666666"
     borderopacity="1.0"
     inkscape:pageopacity="0.0"
     inkscape:pageshadow="2"
     inkscape:zoom="1.4"
     inkscape:cx="142.395"
     inkscape:cy="130.26713"
     inkscape:document-units="mm"
     inkscape:current-layer="layer1"
     showgrid="false"
     inkscape:window-width="1920"
     inkscape:window-height="1014"
     inkscape:window-x="0"
     inkscape:window-y="0"
     inkscape:window-maximized="1"
     units="px"
     inkscape:snap-bbox="false" />
  <metadata
     id="metadata955">
    <rdf:RDF>
      <cc:Work
         rdf:about="">
        <dc:format>image/svg+xml</dc:format>
        <dc:type
           rdf:resource="http://purl.org/dc/dcmitype/StillImage" />
        <dc:title></dc:title>
      </cc:Work>
    </rdf:RDF>
  </metadata>
  <g
     inkscape:label="Camada 1"
     inkscape:groupmode="layer"
     id="layer1"
     transform="translate(0,-217.62498)">
    <path
       d="m 27.386788,270.67016 h 25.921424 v 2.85609 H 27.386788 Z m 2.856068,-20.09742 c 0,-1.59789 -1.254016,-2.85467 -2.856068,-2.85467 -1.596524,0 -2.85054,1.25678 -2.85054,2.85467 0,1.60067 1.254016,2.85468 2.85054,2.85468 1.602052,0 2.856068,-1.25401 2.856068,-2.85468 z m -1.824404,-11.648 -9.481088,6.509 1.60067,2.28433 9.476946,-6.39438 z m 24.88976,8.79333 c -1.597891,0 -2.853306,1.25678 -2.853306,2.85467 0,1.60067 1.255415,2.85468 2.853306,2.85468 1.486037,0 2.856088,-1.25401 2.856088,-2.85468 0,-1.59789 -1.370051,-2.85467 -2.856088,-2.85467 z m -2.73868,-6.39438 9.47694,6.39438 1.711182,-2.28433 -9.5916,-6.509 -1.596522,2.39895"
       style="fill:#cccccc;fill-opacity:1;fill-rule:evenodd;stroke:none;stroke-width:0.13810764"
       id="path24"
       inkscape:connector-curvature="0"
       sodipodi:nodetypes="cccccssssscccccsssssccccc" />
    <rect
       style="opacity:0.98999999;vector-effect:none;fill:none;fill-opacity:1;stroke:#cccccc;stroke-width:1.903;stroke-linecap:butt;stroke-linejoin:miter;stroke-miterlimit:4;stroke-dasharray:none;stroke-dashoffset:0;stroke-opacity:1"
       id="rect1586"
       width="72.103477"
       height="72.103477"
       x="4.0137343"
       y="221.6387"
       ry="23.623512"
       rx="23.623512" />
  </g>
</svg>
