<?xml version="1.0" encoding="UTF-8" standalone="no"?>
<!-- Generator: Adobe Illustrator 17.1.0, SVG Export Plug-In . SVG Version: 6.00 Build 0)  -->

<svg
   xmlns:dc="http://purl.org/dc/elements/1.1/"
   xmlns:cc="http://creativecommons.org/ns#"
   xmlns:rdf="http://www.w3.org/1999/02/22-rdf-syntax-ns#"
   xmlns:svg="http://www.w3.org/2000/svg"
   xmlns="http://www.w3.org/2000/svg"
   xmlns:sodipodi="http://sodipodi.sourceforge.net/DTD/sodipodi-0.dtd"
   xmlns:inkscape="http://www.inkscape.org/namespaces/inkscape"
   version="1.1"
   id="Capa_1"
   x="0px"
   y="0px"
   viewBox="0 0 250 250"
   xml:space="preserve"
   sodipodi:docname="farmer.svg"
   inkscape:version="0.92.3 (2405546, 2018-03-11)"
   width="250"
   height="250"><metadata
   id="metadata47"><rdf:RDF><cc:Work
       rdf:about=""><dc:format>image/svg+xml</dc:format><dc:type
         rdf:resource="http://purl.org/dc/dcmitype/StillImage" /><dc:title></dc:title><dc:title></dc:title></cc:Work></rdf:RDF></metadata><defs
   id="defs45" /><sodipodi:namedview
   pagecolor="#ffffff"
   bordercolor="#666666"
   borderopacity="1"
   objecttolerance="10"
   gridtolerance="10"
   guidetolerance="10"
   inkscape:pageopacity="0"
   inkscape:pageshadow="2"
   inkscape:window-width="1600"
   inkscape:window-height="849"
   id="namedview43"
   showgrid="false"
   inkscape:zoom="1.3612961"
   inkscape:cx="248.01699"
   inkscape:cy="188.98229"
   inkscape:window-x="0"
   inkscape:window-y="25"
   inkscape:window-maximized="1"
   inkscape:current-layer="Capa_1"
   inkscape:pagecheckerboard="false" />
<g
   id="g10"
   style="fill:#cccccc"
   transform="matrix(0.50984095,0,0,0.50984095,1.198022,0.00101069)">
	<path
   d="M 455.922,475.348 H 404.947 V 459.98 c 0,-35.193 -9.385,-62.355 -27.894,-80.733 -1.477,-1.466 -2.977,-2.84 -4.492,-4.129 1.695,-1.941 3.157,-4.249 4.376,-6.71 1.112,1.109 2.173,2.032 3.094,2.723 5.26,3.95 14.629,5.749 21.108,5.749 9.103,0 13.493,-3.301 15.573,-6.07 4.449,-5.923 2.599,-14.276 0.263,-20.241 -1.994,-5.092 -5.715,-11.727 -10.177,-15.078 -0.979,-0.736 -2.152,-1.482 -3.455,-2.202 4.408,-4.083 8.709,-9.851 7.788,-16.331 -1.501,-10.552 -16.73,-16.789 -26.41,-17.938 0.014,-0.657 -0.013,-1.317 -0.107,-1.979 -1.669,-11.734 -20.314,-18.135 -29.427,-18.135 -0.9,0 -1.761,0.058 -2.558,0.171 -4.569,0.649 -10.746,2.896 -15.924,6.61 11.709,-20.4 14.487,-38.757 14.607,-39.593 0.052,-0.356 0.078,-0.716 0.078,-1.076 v -1.606 c 5.268,-1.299 9.851,-4.017 13.49,-8.046 10.618,-11.757 10.002,-30.306 9.243,-37.734 -0.576,-5.655 -3.134,-10.4 -7.398,-13.722 -4.664,-3.635 -10.552,-4.905 -15.336,-5.257 v -7.803 c 33.022,-2.048 54.927,-18.41 67.739,-32.281 14.726,-15.944 20.772,-31.883 21.023,-32.554 0.016,-0.042 0.025,-0.084 0.04,-0.126 0.051,-0.144 0.096,-0.289 0.138,-0.436 0.026,-0.091 0.053,-0.182 0.075,-0.273 0.032,-0.131 0.058,-0.263 0.083,-0.396 0.02,-0.105 0.042,-0.21 0.058,-0.315 0.017,-0.111 0.024,-0.223 0.035,-0.335 0.047,-0.467 0.049,-0.932 0.009,-1.391 -0.009,-0.107 -0.016,-0.214 -0.029,-0.32 -0.015,-0.11 -0.036,-0.218 -0.056,-0.327 -0.022,-0.123 -0.042,-0.245 -0.069,-0.367 -0.023,-0.098 -0.05,-0.194 -0.076,-0.291 -0.035,-0.13 -0.071,-0.259 -0.113,-0.388 -0.03,-0.091 -0.064,-0.18 -0.097,-0.269 -0.048,-0.128 -0.098,-0.255 -0.153,-0.382 -0.039,-0.091 -0.082,-0.18 -0.125,-0.27 -0.056,-0.116 -0.115,-0.231 -0.178,-0.345 -0.054,-0.098 -0.109,-0.193 -0.167,-0.289 -0.06,-0.098 -0.122,-0.194 -0.186,-0.29 -0.071,-0.105 -0.144,-0.21 -0.221,-0.312 -0.025,-0.035 -0.048,-0.072 -0.075,-0.107 -0.078,-0.101 -0.166,-0.208 -0.263,-0.322 0,-0.001 -0.001,-0.001 -0.002,-0.002 -3.146,-3.705 -16.35,-14.078 -65.108,-14.078 -10.862,0 -29.876,-2.108 -35.172,-16.23 C 321.544,22.932 304.34,0 287.368,0 270.955,0 252.593,7.404 245.175,10.729 237.756,7.404 219.394,0 202.98,0 c -16.971,0 -34.175,22.931 -51.134,68.157 -5.295,14.122 -24.309,16.23 -35.171,16.23 -22.246,0 -59.934,2.07 -66.167,15.679 -0.143,0.288 -0.274,0.583 -0.379,0.887 0,0.002 -10e-4,0.003 -0.002,0.004 -0.003,0.008 -0.004,0.016 -0.006,0.024 -0.097,0.286 -0.172,0.579 -0.234,0.875 -0.016,0.077 -0.03,0.153 -0.044,0.229 -0.048,0.27 -0.083,0.542 -0.102,0.818 -0.002,0.034 -0.007,0.068 -0.009,0.103 -0.016,0.31 -0.011,0.622 0.012,0.935 0.004,0.062 0.014,0.122 0.02,0.183 0.024,0.246 0.061,0.492 0.11,0.738 0.016,0.081 0.032,0.16 0.05,0.24 0.061,0.263 0.137,0.524 0.228,0.784 0.013,0.036 0.021,0.072 0.034,0.107 0.003,0.008 0.004,0.015 0.007,0.023 0.25,0.671 6.298,16.609 21.024,32.554 12.812,13.872 34.717,30.233 67.739,32.281 v 7.789 c -4.815,0.335 -10.792,1.591 -15.514,5.271 -4.263,3.322 -6.822,8.067 -7.399,13.723 -0.757,7.429 -1.374,25.978 9.245,37.734 3.679,4.074 8.326,6.804 13.667,8.085 v 1.567 c 0,0.36 0.026,0.72 0.078,1.076 0.131,0.907 3.387,22.474 17.82,44.884 9.258,14.375 24.462,30.956 48.519,40.897 -0.059,0.38 -0.099,0.767 -0.099,1.163 v 22.734 h -37.518 c -1.244,0.015 -30.87,0.051 -54.46,23.474 -18.509,18.377 -27.894,45.54 -27.894,80.733 v 15.368 H 34.426 c -4.142,0 -7.5,3.358 -7.5,7.5 0,4.142 3.358,7.5 7.5,7.5 h 421.497 c 4.143,0 7.5,-3.358 7.5,-7.5 -10e-4,-4.143 -3.358,-7.501 -7.501,-7.501 z M 389.947,459.98 v 15.368 h -37.659 v -96.09 c 4.76,2.64 9.623,6.093 14.196,10.634 15.569,15.458 23.463,39.039 23.463,70.088 z M 245.174,414.946 c 25.598,0 46.753,-19.339 49.651,-44.171 h 15.543 v 62.547 H 180.341 v -62.547 h 15.182 c 2.898,24.832 24.053,44.171 49.651,44.171 z m 81.457,-92.092 c 0.73,-2.098 2.025,-4.658 4.042,-4.945 0.154,-0.022 0.299,-0.033 0.442,-0.033 3.682,0 8.064,8.105 8.761,13.003 0.47,3.308 -2.797,12.092 -5.271,14.69 -3.1,-1.804 -8.686,-9.33 -9.156,-12.639 -0.261,-1.834 -0.17,-6.192 1.182,-10.076 z m 26.517,19.917 c 0.73,-2.098 2.025,-4.658 4.042,-4.945 0.154,-0.022 0.299,-0.033 0.442,-0.033 3.682,0 8.064,8.105 8.761,13.003 0.47,3.308 -2.797,12.091 -5.271,14.689 -3.101,-1.805 -8.686,-9.33 -9.156,-12.639 -0.261,-1.834 -0.171,-6.192 1.182,-10.075 z m -42.55,-7.728 c 0.803,5.642 5.977,14.973 12.761,20.741 -0.376,-0.009 -0.629,-0.01 -0.713,-0.01 H 285.075 V 333.04 c 0,-0.396 -0.04,-0.783 -0.1,-1.163 11.885,-4.911 21.604,-11.443 29.518,-18.528 -0.772,1.398 -1.452,2.922 -2.026,4.571 -2.257,6.473 -2.417,13.27 -1.869,17.123 z M 172.841,448.322 h 145.028 c 4.143,0 7.5,-3.358 7.5,-7.5 V 370.92 c 2.567,0.222 6.809,0.789 11.919,2.211 V 475.348 H 153.422 V 372.961 c 5.165,-1.395 9.413,-1.902 11.918,-2.084 v 69.945 c 0.001,4.142 3.359,7.5 7.501,7.5 z m 228.298,-86.441 c -5.466,0 -10.86,-1.812 -12.1,-2.743 -1.482,-1.113 -4.501,-4.259 -6.29,-7.962 -0.967,-2 -1.86,-4.725 -0.64,-6.353 0.001,0 0.001,0 0.001,-10e-4 10e-4,-10e-4 0.002,-0.003 0.002,-0.004 0.285,-0.379 1.041,-1.376 3.836,-1.376 4.214,0 9.585,2.349 11.843,4.044 2.661,1.999 6.544,10.466 6.657,14.075 -0.67,0.161 -1.755,0.32 -3.309,0.32 z m -17.83,-33.608 c -0.316,0.045 -1.005,0.121 -2.051,0.121 -5.12,0 -12.477,-1.857 -12.972,-5.344 -0.287,-2.017 1.811,-3.973 3.622,-5.26 3.352,-2.381 7.513,-3.683 9.349,-3.943 0.024,-0.003 0.164,-0.022 0.446,-0.022 4.384,0 11.898,3.081 14.241,5.296 -1.807,3.101 -9.328,8.682 -12.635,9.152 z M 354.742,293.93 c 0.025,-0.003 0.165,-0.022 0.446,-0.022 4.383,0 11.897,3.081 14.24,5.296 -1.809,3.101 -9.33,8.682 -12.637,9.152 -0.316,0.045 -1.005,0.121 -2.051,0.121 -5.12,0 -12.476,-1.857 -12.971,-5.344 -0.561,-3.947 8.242,-8.53 12.973,-9.203 z m 2.765,-98.188 c 0.724,0.564 1.492,1.412 1.696,3.414 0.892,8.739 -0.072,20.2 -5.453,26.158 -0.721,0.798 -1.509,1.456 -2.358,2.009 v -33.6 c 2.309,0.268 4.631,0.863 6.115,2.019 z m -6.115,-39.933 v -10.444 c 25.465,-5.275 44.292,-11.99 57.797,-18.241 -11.78,13.156 -30.379,26.695 -57.797,28.685 z M 116.675,99.388 c 25.459,0 42.938,-9.221 49.216,-25.964 C 180.944,33.283 195.669,15 202.98,15 c 17.136,0 38.629,10.611 38.844,10.718 0.065,0.032 0.131,0.056 0.197,0.086 0.081,0.038 0.164,0.073 0.247,0.108 0.151,0.063 0.302,0.123 0.455,0.176 0.066,0.023 0.134,0.043 0.201,0.065 0.17,0.054 0.34,0.103 0.511,0.144 0.056,0.013 0.113,0.024 0.169,0.036 0.181,0.039 0.362,0.074 0.544,0.099 0.058,0.008 0.116,0.013 0.175,0.02 0.179,0.02 0.357,0.037 0.536,0.044 0.073,0.003 0.145,0.002 0.218,0.003 0.164,0.002 0.328,0.002 0.491,-0.007 0.091,-0.005 0.182,-0.015 0.273,-0.023 0.146,-0.013 0.291,-0.027 0.436,-0.049 0.104,-0.015 0.207,-0.036 0.311,-0.056 0.134,-0.026 0.268,-0.052 0.399,-0.085 0.105,-0.026 0.209,-0.057 0.314,-0.088 0.133,-0.04 0.266,-0.081 0.396,-0.127 0.098,-0.035 0.193,-0.073 0.289,-0.112 0.138,-0.056 0.273,-0.114 0.407,-0.178 0.043,-0.021 0.087,-0.035 0.13,-0.057 C 248.739,25.611 270.232,15 287.368,15 c 7.313,0 22.038,18.283 37.089,58.424 6.279,16.743 23.758,25.964 49.217,25.964 24.149,0 38.017,2.712 45.621,5.168 -6.06,3.932 -15.658,9.21 -29.672,14.461 -46.295,17.348 -104.104,20.989 -144.448,20.989 -40.344,0 -98.153,-3.642 -144.449,-20.989 -14.526,-5.443 -24.308,-10.916 -30.317,-14.882 7.013,-2.211 20.645,-4.747 46.266,-4.747 z m -34.064,29.408 c -0.538,-0.576 -1.059,-1.152 -1.571,-1.729 13.513,6.267 32.375,13.007 57.916,18.297 v 10.433 c -22.09,-1.56 -41.027,-10.606 -56.345,-27.001 z m 53.809,96.518 c -5.38,-5.957 -6.345,-17.419 -5.454,-26.158 0.203,-1.993 0.963,-2.837 1.68,-3.401 1.518,-1.193 3.926,-1.794 6.309,-2.051 v 33.729 c -0.917,-0.572 -1.764,-1.266 -2.535,-2.119 z m 33.344,58.006 C 158.029,265.309 154.497,247.478 153.956,244.406 V 148.16 c 24.729,4.124 54.824,6.846 91.218,6.846 36.394,0 66.489,-2.722 91.218,-6.845 v 96.244 c -0.548,3.109 -4.085,20.923 -15.808,38.916 -0.869,1.333 -1.766,2.628 -2.679,3.899 l -23.98,-18.012 c -0.722,-0.542 -1.511,-0.925 -2.327,-1.173 -0.108,-0.137 -0.215,-0.276 -0.335,-0.407 -2.792,-3.061 -7.512,-3.301 -10.57,-0.51 -0.045,0.039 -4.597,3.985 -13.574,7.07 -3.917,1.346 -6.002,5.613 -4.655,9.53 1.068,3.11 3.978,5.064 7.092,5.064 0.809,0 1.631,-0.132 2.438,-0.409 6.104,-2.098 10.689,-4.539 13.81,-6.506 l 22.427,16.845 c -15.936,16.087 -36.831,25.076 -62.359,26.777 h -1.394 C 211.71,323.305 186.572,309.118 169.764,283.32 Z m 73.983,57.154 c 0.161,0.01 0.323,0.016 0.485,0.016 h 1.886 c 0.162,0 0.324,-0.005 0.485,-0.016 8.5,-0.551 16.299,-1.832 23.473,-3.668 v 26.469 c 0,4.142 3.357,7.5 7.5,7.5 h 2.107 c -2.785,16.533 -17.194,29.171 -34.508,29.171 -17.314,0 -31.723,-12.638 -34.508,-29.171 h 2.107 c 4.142,0 7.5,-3.358 7.5,-7.5 v -26.469 c 7.174,1.836 14.973,3.117 23.473,3.668 z M 100.402,459.98 c 0,-48.922 19.862,-71.011 38.021,-80.988 v 96.356 h -38.021 z"
   id="path2"
   style="fill:#cccccc"
   inkscape:connector-curvature="0" />
	<circle
   cx="191.937"
   cy="182.672"
   r="8.9510002"
   id="circle4"
   style="fill:#cccccc" />
	<circle
   cx="298.41101"
   cy="182.672"
   r="8.9510002"
   id="circle6"
   style="fill:#cccccc" />
	<path
   d="m 265.109,217.399 c 0,-4.142 -3.358,-7.5 -7.5,-7.5 -4.143,0 -7.5,3.358 -7.5,7.5 0,1.654 -1.347,3 -3.001,3 h -3.868 c -1.654,0 -3,-1.346 -3,-3 0,-4.142 -3.358,-7.5 -7.5,-7.5 -4.142,0 -7.5,3.358 -7.5,7.5 0,9.925 8.075,18 18,18 h 3.868 c 9.926,0 18.001,-8.074 18.001,-18 z"
   id="path8"
   style="fill:#cccccc"
   inkscape:connector-curvature="0" />
</g>
<g
   id="g12"
   transform="translate(0,-240.34799)">
</g>
<g
   id="g14"
   transform="translate(0,-240.34799)">
</g>
<g
   id="g16"
   transform="translate(0,-240.34799)">
</g>
<g
   id="g18"
   transform="translate(0,-240.34799)">
</g>
<g
   id="g20"
   transform="translate(0,-240.34799)">
</g>
<g
   id="g22"
   transform="translate(0,-240.34799)">
</g>
<g
   id="g24"
   transform="translate(0,-240.34799)">
</g>
<g
   id="g26"
   transform="translate(0,-240.34799)">
</g>
<g
   id="g28"
   transform="translate(0,-240.34799)">
</g>
<g
   id="g30"
   transform="translate(0,-240.34799)">
</g>
<g
   id="g32"
   transform="translate(0,-240.34799)">
</g>
<g
   id="g34"
   transform="translate(0,-240.34799)">
</g>
<g
   id="g36"
   transform="translate(0,-240.34799)">
</g>
<g
   id="g38"
   transform="translate(0,-240.34799)">
</g>
<g
   id="g40"
   transform="translate(0,-240.34799)">
</g>
</svg>