<?xml version="1.0" encoding="UTF-8" standalone="no"?>
<!-- Created with Inkscape (http://www.inkscape.org/) -->

<svg
   xmlns:dc="http://purl.org/dc/elements/1.1/"
   xmlns:cc="http://creativecommons.org/ns#"
   xmlns:rdf="http://www.w3.org/1999/02/22-rdf-syntax-ns#"
   xmlns:svg="http://www.w3.org/2000/svg"
   xmlns="http://www.w3.org/2000/svg"
   xmlns:sodipodi="http://sodipodi.sourceforge.net/DTD/sodipodi-0.dtd"
   xmlns:inkscape="http://www.inkscape.org/namespaces/inkscape"
   width="250"
   height="250"
   viewBox="0 0 66.145831 66.145835"
   version="1.1"
   id="svg216"
   inkscape:version="0.92.3 (2405546, 2018-03-11)"
   sodipodi:docname="no-image-square.svg">
  <defs
     id="defs210" />
  <sodipodi:namedview
     id="base"
     pagecolor="#ffffff"
     bordercolor="#666666"
     borderopacity="1.0"
     inkscape:pageopacity="0.0"
     inkscape:pageshadow="2"
     inkscape:zoom="1.979899"
     inkscape:cx="94.883651"
     inkscape:cy="120.13517"
     inkscape:document-units="mm"
     inkscape:current-layer="layer1"
     showgrid="false"
     units="px"
     inkscape:window-width="1600"
     inkscape:window-height="849"
     inkscape:window-x="0"
     inkscape:window-y="25"
     inkscape:window-maximized="1"
     inkscape:snap-text-baseline="false" />
  <metadata
     id="metadata213">
    <rdf:RDF>
      <cc:Work
         rdf:about="">
        <dc:format>image/svg+xml</dc:format>
        <dc:type
           rdf:resource="http://purl.org/dc/dcmitype/StillImage" />
        <dc:title></dc:title>
      </cc:Work>
    </rdf:RDF>
  </metadata>
  <g
     inkscape:label="Camada 1"
     inkscape:groupmode="layer"
     id="layer1"
     transform="translate(0,-230.85415)">
    <rect
       style="fill:#f2f2f2;stroke-width:0.20831606"
       id="rect208"
       width="66.145836"
       height="66.145836"
       x="0"
       y="-296.99997"
       transform="scale(1,-1)" />
    <g
       id="g43"
       transform="translate(-3.0218334,1.5287065)">
      <g
         style="fill:#cccccc"
         transform="matrix(1.2703385,0,0,1.2703385,-145.1777,-98.422714)"
         id="g200">
        <path
           inkscape:connector-curvature="0"
           style="fill:#cccccc;stroke-width:1.52844119"
           d="m 157.98059,264.70808 h -30.56882 c -0.84523,0 -1.52844,0.68322 -1.52844,1.52845 v 27.51194 c 0,0.84523 0.68321,1.52844 1.52844,1.52844 h 30.56882 c 0.84523,0 1.52844,-0.68321 1.52844,-1.52844 v -27.51194 c 0,-0.84523 -0.68321,-1.52845 -1.52844,-1.52845 z m 0,1.52845 v 21.19795 l -4.96743,-5.3954 c -0.29193,-0.33014 -0.70767,-0.51814 -1.14633,-0.51814 -0.43867,0 -0.85746,0.188 -1.14633,0.51814 l -3.98007,4.5089 -12.06857,-13.67955 c -0.2904,-0.33014 -0.70767,-0.51814 -1.14633,-0.51814 -0.43866,0 -0.85593,0.188 -1.14633,0.51814 l -4.96743,5.7286 v -12.3605 z m -30.56882,14.67303 6.11376,-7.03083 12.32841,13.97454 0.88649,1.00571 4.22156,4.88949 h -23.55022 z m 25.5861,12.83891 -5.23949,-6.04499 4.10845,-4.6541 6.11376,6.69304 v 4.00605 z"
           id="path105" />
        <path
           inkscape:connector-curvature="0"
           style="fill:#cccccc;stroke-width:1.52844119"
           d="m 148.80994,278.46406 c 2.5311,0 4.58533,-2.0527 4.58533,-4.58533 0,-2.53263 -2.05423,-4.58532 -4.58533,-4.58532 -2.53415,0 -4.58532,2.05269 -4.58532,4.58532 0,2.53263 2.05117,4.58533 4.58532,4.58533 z m 0,-7.64221 c 1.68435,0 3.05689,1.37101 3.05689,3.05688 0,1.68587 -1.37254,3.05688 -3.05689,3.05688 -1.6874,0 -3.05688,-1.37101 -3.05688,-3.05688 0,-1.68587 1.36948,-3.05688 3.05688,-3.05688 z"
           id="path107" />
      </g>
      <text
         id="text204"
         y="286.05536"
         x="9.9454079"
         style="font-style:normal;font-weight:normal;font-size:4.30358839px;line-height:1.25;font-family:sans-serif;letter-spacing:0px;word-spacing:0px;fill:#cccccc;fill-opacity:1;stroke:none;stroke-width:0.10758971"
         xml:space="preserve"><tspan
           style="fill:#cccccc;stroke-width:0.10758971"
           y="286.05536"
           x="9.9454079"
           id="tspan202"
           sodipodi:role="line">Sem Imagem Disponível</tspan></text>
    </g>
  </g>
</svg>
